<svg width="24" height="24" viewBox="0 0 24 24" fill="none" xmlns="http://www.w3.org/2000/svg">
<path d="M15.6642 5.17538C15.5366 5.13888 15.4023 5.13251 15.2718 5.15678C15.1413 5.18105 15.0182 5.2353 14.9123 5.31524C14.8063 5.39518 14.7204 5.49864 14.6612 5.61746C14.6021 5.73628 14.5713 5.86722 14.5714 5.99995L14.5714 12.8108L12.8571 12.2399L12.8571 1.71423L11.1428 1.71423L11.1428 12.2399L9.42853 12.8108L9.42853 5.99995C9.42861 5.86722 9.39786 5.73628 9.3387 5.61746C9.27955 5.49864 9.1936 5.39518 9.08765 5.31524C8.98169 5.2353 8.85862 5.18105 8.72813 5.15678C8.59764 5.13251 8.46329 5.13888 8.33568 5.17538C6.37551 5.83268 4.67629 7.09844 3.48536 8.78841C2.29443 10.4784 1.67395 12.5043 1.71425 14.5714L1.71425 19.7999C1.70539 20.1518 1.77081 20.5017 1.90624 20.8266C2.04167 21.1515 2.24407 21.4442 2.50025 21.6857C2.93009 22.0708 3.48656 22.2843 4.06368 22.2857C4.28457 22.2852 4.50434 22.2543 4.71682 22.1939L6.32139 21.7345C7.21644 21.4785 8.00378 20.938 8.56437 20.1948C9.12496 19.4516 9.42831 18.546 9.42853 17.6151V14.6151L12 13.7579L14.5714 14.6151V17.6151C14.5714 18.5462 14.8747 19.4519 15.4353 20.1953C15.9959 20.9387 16.7833 21.4793 17.6785 21.7354L19.2831 22.1948C19.4956 22.2552 19.7154 22.2861 19.9362 22.2865C20.5134 22.2852 21.0698 22.0716 21.4997 21.6865C21.756 21.445 21.9584 21.1521 22.0939 20.8271C22.2293 20.502 22.2947 20.152 22.2857 19.7999V14.5714C22.326 12.5043 21.7055 10.4784 20.5146 8.78841C19.3236 7.09844 17.6244 5.83268 15.6642 5.17538Z" fill="#BDC1CA"/>
</svg>
