<svg width="24" height="24" viewBox="0 0 24 24" fill="none" xmlns="http://www.w3.org/2000/svg">
<path d="M15.6642 5.1755C15.5366 5.139 15.4023 5.13263 15.2718 5.1569C15.1413 5.18117 15.0182 5.23542 14.9123 5.31536C14.8063 5.39531 14.7204 5.49876 14.6612 5.61758C14.6021 5.7364 14.5713 5.86734 14.5714 6.00007L14.5714 12.8109L12.8571 12.2401L12.8571 1.71436L11.1428 1.71436L11.1428 12.2401L9.42853 12.8109L9.42853 6.00007C9.42861 5.86734 9.39786 5.7364 9.3387 5.61758C9.27955 5.49876 9.1936 5.39531 9.08765 5.31536C8.98169 5.23542 8.85862 5.18117 8.72813 5.1569C8.59764 5.13263 8.46329 5.139 8.33568 5.1755C6.37551 5.8328 4.67629 7.09856 3.48536 8.78853C2.29443 10.4785 1.67395 12.5045 1.71425 14.5715L1.71425 19.8001C1.70539 20.152 1.77081 20.5018 1.90624 20.8267C2.04167 21.1516 2.24407 21.4444 2.50025 21.6858C2.93009 22.0709 3.48656 22.2844 4.06368 22.2858C4.28457 22.2853 4.50434 22.2545 4.71682 22.1941L6.32139 21.7346C7.21644 21.4786 8.00378 20.9382 8.56437 20.1949C9.12496 19.4517 9.42831 18.5462 9.42853 17.6152V14.6152L12 13.7581L14.5714 14.6152V17.6152C14.5714 18.5463 14.8747 19.452 15.4353 20.1954C15.9959 20.9388 16.7833 21.4794 17.6785 21.7355L19.2831 22.1949C19.4956 22.2553 19.7154 22.2862 19.9362 22.2866C20.5134 22.2853 21.0698 22.0717 21.4997 21.6866C21.756 21.4451 21.9584 21.1523 22.0939 20.8272C22.2293 20.5021 22.2947 20.1521 22.2857 19.8001V14.5715C22.326 12.5045 21.7055 10.4785 20.5146 8.78853C19.3236 7.09856 17.6244 5.8328 15.6642 5.1755Z" fill="#BDC1CA"/>
</svg>
