<svg width="24" height="24" viewBox="0 0 24 24" fill="none" xmlns="http://www.w3.org/2000/svg">
<path d="M19.6045 13.2454C19.6746 12.8339 19.7113 12.4174 19.7143 11.9999C19.7113 11.5825 19.6746 11.166 19.6045 10.7545L21.4045 9.01538C21.5418 8.88256 21.6308 8.70771 21.6573 8.51857C21.6839 8.32944 21.6465 8.13685 21.5511 7.97138L20.2654 5.7428C20.1687 5.57795 20.0201 5.44976 19.8429 5.37827C19.6656 5.30678 19.4697 5.29602 19.2857 5.34766L16.8857 6.03338C16.2359 5.50411 15.5043 5.08406 14.7197 4.78966L14.1171 2.36395C14.0708 2.17843 13.9639 2.01372 13.8132 1.89599C13.6626 1.77826 13.4769 1.71429 13.2857 1.71423L10.7143 1.71423C10.5231 1.71429 10.3374 1.77826 10.1867 1.89599C10.0361 2.01372 9.92909 2.17843 9.88283 2.36395L9.27683 4.78966C8.49338 5.08439 7.76301 5.50443 7.11425 6.03338L4.71425 5.34766C4.53024 5.29617 4.33435 5.307 4.15714 5.37848C3.97993 5.44995 3.83134 5.57805 3.73454 5.7428L2.44883 7.97138C2.35324 8.13694 2.31574 8.32971 2.3423 8.51903C2.36885 8.70835 2.45794 8.88336 2.5954 9.01623L4.3954 10.7554C4.32536 11.1666 4.28867 11.5828 4.28568 11.9999C4.28862 12.4174 4.32531 12.8339 4.3954 13.2454L2.5954 14.9845C2.45814 15.1173 2.36918 15.2922 2.34263 15.4813C2.31607 15.6705 2.35345 15.863 2.44883 16.0285L3.73454 18.2571C3.80984 18.3875 3.91818 18.4958 4.04864 18.571C4.1791 18.6463 4.32708 18.6858 4.47768 18.6857C4.55735 18.6853 4.63662 18.6744 4.7134 18.6531L7.1134 17.9674C7.76319 18.4966 8.49474 18.9167 9.2794 19.2111L9.8854 21.6368C9.93172 21.8217 10.0384 21.9859 10.1885 22.1035C10.3386 22.221 10.5236 22.2851 10.7143 22.2857H13.2857C13.4769 22.2856 13.6626 22.2216 13.8132 22.1039C13.9639 21.9862 14.0708 21.8215 14.1171 21.6359L14.7231 19.2102C15.5066 18.9155 16.2369 18.4955 16.8857 17.9665L19.2857 18.6522C19.3625 18.6735 19.4417 18.6844 19.5214 18.6848C19.672 18.685 19.82 18.6454 19.9504 18.5702C20.0809 18.4949 20.1892 18.3867 20.2645 18.2562L21.5503 16.0277C21.6458 15.8621 21.6833 15.6693 21.6568 15.48C21.6302 15.2907 21.5411 15.1157 21.4037 14.9828L19.6045 13.2454ZM12 15.4285C11.3219 15.4285 10.659 15.2274 10.0952 14.8507C9.53133 14.474 9.09188 13.9385 8.83238 13.312C8.57288 12.6855 8.50498 11.9961 8.63728 11.3311C8.76957 10.666 9.09611 10.0551 9.5756 9.57558C10.0551 9.09609 10.666 8.76955 11.3311 8.63726C11.9962 8.50496 12.6855 8.57286 13.312 8.83236C13.9385 9.09186 14.474 9.53131 14.8507 10.0951C15.2275 10.659 15.4285 11.3218 15.4285 11.9999C15.4285 12.9093 15.0673 13.7813 14.4243 14.4243C13.7814 15.0673 12.9093 15.4285 12 15.4285Z" fill="white"/>
</svg>
